<svg width="29" height="26" viewBox="0 0 29 26" fill="#fff" xmlns="http://www.w3.org/2000/svg">
<path d="M26.9043 3.25H7.03125L6.5918 1.10156C6.49414 0.564453 6.00586 0.125 5.46875 0.125H0.585938C0.244141 0.125 0 0.417969 0 0.710938V1.88281C0 2.22461 0.244141 2.46875 0.585938 2.46875H4.49219L7.86133 19.8516C7.32422 20.4375 7.03125 21.1699 7.03125 22C7.03125 23.7578 8.39844 25.125 10.1562 25.125C11.8652 25.125 13.2812 23.7578 13.2812 22C13.2812 21.5605 13.0859 20.877 12.8418 20.4375H19.9219C19.6777 20.877 19.5312 21.5605 19.5312 22C19.5312 23.7578 20.8984 25.125 22.6562 25.125C24.3652 25.125 25.7812 23.7578 25.7812 22C25.7812 21.1211 25.3906 20.3398 24.8047 19.7539L24.8535 19.5586C25 18.8262 24.4629 18.0938 23.6816 18.0938H9.91211L9.47266 15.75H24.707C25.293 15.75 25.7324 15.4082 25.8789 14.8711L28.0762 4.71484C28.2227 3.98242 27.6855 3.25 26.9043 3.25ZM22.6562 20.8281C23.291 20.8281 23.8281 21.3652 23.8281 22C23.8281 22.6836 23.291 23.1719 22.6562 23.1719C21.9727 23.1719 21.4844 22.6836 21.4844 22C21.4844 21.3652 21.9727 20.8281 22.6562 20.8281ZM10.1562 20.8281C10.791 20.8281 11.3281 21.3652 11.3281 22C11.3281 22.6836 10.791 23.1719 10.1562 23.1719C9.47266 23.1719 8.98438 22.6836 8.98438 22C8.98438 21.3652 9.47266 20.8281 10.1562 20.8281ZM23.7793 13.4062H8.98438L7.4707 5.59375H25.4883L23.7793 13.4062ZM13.2812 9.89062C13.2812 10.2324 13.5254 10.4766 13.8672 10.4766H15.4297V12.0391C15.4297 12.3809 15.6738 12.625 16.0156 12.625H16.7969C17.0898 12.625 17.3828 12.3809 17.3828 12.0391V10.4766H18.9453C19.2383 10.4766 19.5312 10.2324 19.5312 9.89062V9.10938C19.5312 8.81641 19.2383 8.52344 18.9453 8.52344H17.3828V6.96094C17.3828 6.66797 17.0898 6.375 16.7969 6.375H16.0156C15.6738 6.375 15.4297 6.66797 15.4297 6.96094V8.52344H13.8672C13.5254 8.52344 13.2812 8.81641 13.2812 9.10938V9.89062Z" fill="white"/>
</svg>
