<svg width="71" height="43" viewBox="0 0 71 43" fill="#000" xmlns="http://www.w3.org/2000/svg">
<path d="M0.11 34.94L2.3 34.34V22.91C2.3 22.39 2.26 22.05 2.18 21.89C2.1 21.71 1.89 21.55 1.55 21.41L-0.01 20.54L0.17 18.08C3.17 17.64 6.06 17.42 8.84 17.42C11 17.42 12.74 17.64 14.06 18.08C15.38 18.5 16.34 19.17 16.94 20.09C17.56 20.99 17.87 22.19 17.87 23.69C17.87 24.93 17.55 26.02 16.91 26.96C16.27 27.88 15.36 28.59 14.18 29.09L18.98 36.83L18.95 38H13.49L9.05 29.99L7.73 29.96V33.32C7.73 33.8 7.76 34.11 7.82 34.25C7.9 34.37 8.08 34.51 8.36 34.67L9.65 35.42L9.53 38H0.26L0.11 34.94ZM9.65 26.6C10.71 26.6 11.49 26.5 11.99 26.3C12.19 25.58 12.29 24.72 12.29 23.72C12.29 22.72 12.07 22.01 11.63 21.59C11.21 21.17 10.5 20.96 9.5 20.96C8.94 20.96 8.37 20.99 7.79 21.05V26.42C8.31 26.54 8.93 26.6 9.65 26.6ZM29.5365 42.68C28.6565 42.68 27.8065 42.57 26.9865 42.35C26.1865 42.15 25.4865 41.87 24.8865 41.51L26.6265 37.31H27.9465C29.0665 37.85 30.4065 38.12 31.9665 38.12C33.2665 38.12 34.1465 37.9 34.6065 37.46C34.6265 36.38 34.3865 35.57 33.8865 35.03C33.3865 34.47 32.6065 34.14 31.5465 34.04L29.5365 33.86C28.8165 33.82 28.2765 33.78 27.9165 33.74C28.0765 32.26 28.2865 31.07 28.5465 30.17C29.9065 30.01 30.8065 29.89 31.2465 29.81C31.6865 29.73 32.0565 29.62 32.3565 29.48C32.5165 28.88 32.6065 28.31 32.6265 27.77C32.6065 27.11 32.3965 26.65 31.9965 26.39C31.6165 26.13 30.9365 26 29.9565 26C28.7965 26 27.5565 26.15 26.2365 26.45L26.2665 25.07L26.8665 22.19C28.3065 21.75 29.8265 21.53 31.4265 21.53C33.2265 21.53 34.6765 21.91 35.7765 22.67C36.8965 23.41 37.4565 24.41 37.4565 25.67C37.4565 26.37 37.2965 27.07 36.9765 27.77C36.6565 28.47 36.1665 29.22 35.5065 30.02C36.6265 30.34 37.4465 30.86 37.9665 31.58C38.4865 32.28 38.7465 33.23 38.7465 34.43C38.7465 35.97 38.3365 37.37 37.5165 38.63C36.7165 39.89 35.6065 40.88 34.1865 41.6C32.7865 42.32 31.2365 42.68 29.5365 42.68ZM44.5946 42.68C42.7146 42.68 41.2046 42.28 40.0646 41.48L41.6546 37.4H42.8546C43.9146 37.96 45.2646 38.24 46.9046 38.24C48.0846 38.24 48.9246 38.01 49.4246 37.55C49.4446 36.49 49.2146 35.68 48.7346 35.12C48.2746 34.56 47.5546 34.23 46.5746 34.13C47.0546 34.17 45.8946 34.09 43.0946 33.89L41.4146 33.8L40.7546 26.03C40.7346 25.45 40.7846 24.79 40.9046 24.05C41.0246 23.31 41.1846 22.58 41.3846 21.86H48.0446C48.5046 21.86 48.8046 21.84 48.9446 21.8C49.0846 21.74 49.2746 21.57 49.5146 21.29L50.0846 20.57L52.4246 21.2C52.2846 22.84 52.0746 24.65 51.7946 26.63H44.6546V29.15L45.5246 29.21C46.8846 29.29 48.0146 29.41 48.9146 29.57C49.8346 29.71 50.6146 29.98 51.2546 30.38C52.6946 31.24 53.4146 32.63 53.4146 34.55C53.4146 36.07 53.0246 37.45 52.2446 38.69C51.4846 39.93 50.4346 40.9 49.0946 41.6C47.7546 42.32 46.2546 42.68 44.5946 42.68ZM57.5938 41.54L63.4738 34.73L60.8038 35.33C59.0438 35.11 57.6338 34.46 56.5738 33.38C55.5138 32.3 54.9838 30.95 54.9838 29.33C54.9838 27.87 55.3138 26.55 55.9738 25.37C56.6338 24.17 57.5338 23.23 58.6738 22.55C59.8138 21.87 61.0838 21.53 62.4838 21.53C63.9238 21.53 65.1838 21.82 66.2638 22.4C67.3438 22.98 68.1738 23.8 68.7538 24.86C69.3538 25.92 69.6538 27.16 69.6538 28.58C69.6538 29.8 69.4938 30.94 69.1738 32C68.8538 33.04 68.2738 34.34 67.4338 35.9C67.0538 36.62 66.5638 37.42 65.9638 38.3C65.3638 39.2 64.3938 40.55 63.0538 42.35L57.8638 42.68L57.5938 41.54ZM63.1438 31.58C63.7638 31.58 64.3038 31.54 64.7638 31.46C64.7838 31.26 64.7938 30.9 64.7938 30.38C64.7938 28.82 64.5238 27.61 63.9838 26.75C63.4438 25.89 62.6838 25.46 61.7038 25.46C61.0038 25.46 60.4038 25.52 59.9038 25.64C59.8838 25.82 59.8738 26.17 59.8738 26.69C59.8738 28.37 60.1338 29.61 60.6538 30.41C61.1938 31.19 62.0238 31.58 63.1438 31.58Z" fill="#111111"/>
<path d="M30.518 8.572L31.54 8.292V2.958C31.54 2.71533 31.5213 2.55667 31.484 2.482C31.4467 2.398 31.3487 2.32333 31.19 2.258L30.462 1.852L30.546 0.704C31.946 0.498666 33.2947 0.395999 34.592 0.395999C35.6 0.395999 36.412 0.498666 37.028 0.704C37.644 0.9 38.092 1.21267 38.372 1.642C38.6613 2.062 38.806 2.622 38.806 3.322C38.806 3.90067 38.6567 4.40933 38.358 4.848C38.0593 5.27733 37.6347 5.60867 37.084 5.842L39.324 9.454L39.31 10H36.762L34.69 6.262L34.074 6.248V7.816C34.074 8.04 34.088 8.18467 34.116 8.25C34.1533 8.306 34.2373 8.37133 34.368 8.446L34.97 8.796L34.914 10H30.588L30.518 8.572ZM34.97 4.68C35.4647 4.68 35.8287 4.63333 36.062 4.54C36.1553 4.204 36.202 3.80267 36.202 3.336C36.202 2.86933 36.0993 2.538 35.894 2.342C35.698 2.146 35.3667 2.048 34.9 2.048C34.6387 2.048 34.3727 2.062 34.102 2.09V4.596C34.3447 4.652 34.634 4.68 34.97 4.68ZM44.8244 12.184C43.947 12.184 43.2424 11.9973 42.7104 11.624L43.4524 9.72H44.0124C44.507 9.98133 45.137 10.112 45.9024 10.112C46.453 10.112 46.845 10.0047 47.0784 9.79C47.0877 9.29533 46.9804 8.91733 46.7564 8.656C46.5417 8.39467 46.2057 8.24067 45.7484 8.194C45.9724 8.21267 45.431 8.17533 44.1244 8.082L43.3404 8.04L43.0324 4.414C43.023 4.14333 43.0464 3.83533 43.1024 3.49C43.1584 3.14467 43.233 2.804 43.3264 2.468H46.4344C46.649 2.468 46.789 2.45867 46.8544 2.44C46.9197 2.412 47.0084 2.33267 47.1204 2.202L47.3864 1.866L48.4784 2.16C48.413 2.92533 48.315 3.77 48.1844 4.694H44.8524V5.87L45.2584 5.898C45.893 5.93533 46.4204 5.99133 46.8404 6.066C47.2697 6.13133 47.6337 6.25733 47.9324 6.444C48.6044 6.84533 48.9404 7.494 48.9404 8.39C48.9404 9.09933 48.7584 9.74333 48.3944 10.322C48.0397 10.9007 47.5497 11.3533 46.9244 11.68C46.299 12.016 45.599 12.184 44.8244 12.184ZM50.8906 11.652L53.6346 8.474L52.3886 8.754C51.5673 8.65133 50.9093 8.348 50.4146 7.844C49.92 7.34 49.6726 6.71 49.6726 5.954C49.6726 5.27267 49.8266 4.65667 50.1346 4.106C50.4426 3.546 50.8626 3.10733 51.3946 2.79C51.9266 2.47267 52.5193 2.314 53.1726 2.314C53.8446 2.314 54.4326 2.44933 54.9366 2.72C55.4406 2.99067 55.828 3.37333 56.0986 3.868C56.3786 4.36267 56.5186 4.94133 56.5186 5.604C56.5186 6.17333 56.444 6.70533 56.2946 7.2C56.1453 7.68533 55.8746 8.292 55.4826 9.02C55.3053 9.356 55.0766 9.72933 54.7966 10.14C54.5166 10.56 54.064 11.19 53.4386 12.03L51.0166 12.184L50.8906 11.652ZM53.4806 7.004C53.77 7.004 54.022 6.98533 54.2366 6.948C54.246 6.85467 54.2506 6.68667 54.2506 6.444C54.2506 5.716 54.1246 5.15133 53.8726 4.75C53.6206 4.34867 53.266 4.148 52.8086 4.148C52.482 4.148 52.202 4.176 51.9686 4.232C51.9593 4.316 51.9546 4.47933 51.9546 4.722C51.9546 5.506 52.076 6.08467 52.3186 6.458C52.5706 6.822 52.958 7.004 53.4806 7.004ZM58.793 11.652L61.537 8.474L60.291 8.754C59.4696 8.65133 58.8116 8.348 58.317 7.844C57.8223 7.34 57.575 6.71 57.575 5.954C57.575 5.27267 57.729 4.65667 58.037 4.106C58.345 3.546 58.765 3.10733 59.297 2.79C59.829 2.47267 60.4216 2.314 61.075 2.314C61.747 2.314 62.335 2.44933 62.839 2.72C63.343 2.99067 63.7303 3.37333 64.001 3.868C64.281 4.36267 64.421 4.94133 64.421 5.604C64.421 6.17333 64.3463 6.70533 64.197 7.2C64.0476 7.68533 63.777 8.292 63.385 9.02C63.2076 9.356 62.979 9.72933 62.699 10.14C62.419 10.56 61.9663 11.19 61.341 12.03L58.919 12.184L58.793 11.652ZM61.383 7.004C61.6723 7.004 61.9243 6.98533 62.139 6.948C62.1483 6.85467 62.153 6.68667 62.153 6.444C62.153 5.716 62.027 5.15133 61.775 4.75C61.523 4.34867 61.1683 4.148 60.711 4.148C60.3843 4.148 60.1043 4.176 59.871 4.232C59.8616 4.316 59.857 4.47933 59.857 4.722C59.857 5.506 59.9783 6.08467 60.221 6.458C60.473 6.822 60.8603 7.004 61.383 7.004Z" fill="#828282"/>
<line x1="25.8463" y1="10.0119" x2="70.8463" y2="3.01188" stroke="#828282" stroke-width="2"/>
</svg>
