<svg width="99" height="25" viewBox="0 0 99 25" fill="none" xmlns="http://www.w3.org/2000/svg">
<rect width="99" height="25" rx="4" fill="#00A2FF"/>
<path d="M30.296 11.56H34.12L33.72 13.224H29.896L30.296 11.56ZM43.0444 13.88H41.3644L40.7084 17H38.8684L39.5244 13.88H34.9324L35.1724 12.696L41.4604 5.72H43.0924L41.7164 12.232H43.3964L43.0444 13.88ZM40.4044 9.768L40.8204 8.424H40.7724L40.0044 9.576L37.9884 11.736L37.1084 12.344L38.1004 12.232H39.8764L40.4044 9.768ZM44.0831 13.336C44.0831 12.2267 44.2058 11.2027 44.4511 10.264C44.7071 9.31467 45.0591 8.49333 45.5071 7.8C45.9551 7.10667 46.4831 6.56267 47.0911 6.168C47.7098 5.77333 48.3818 5.576 49.1071 5.576C49.5231 5.576 49.9125 5.64 50.2751 5.768C50.6485 5.896 50.9738 6.10933 51.2511 6.408C51.5285 6.70667 51.7471 7.10667 51.9071 7.608C52.0671 8.10933 52.1471 8.728 52.1471 9.464C52.1471 10.456 52.0298 11.4213 51.7951 12.36C51.5711 13.288 51.2405 14.1147 50.8031 14.84C50.3765 15.5547 49.8485 16.1307 49.2191 16.568C48.6005 17.0053 47.9018 17.224 47.1231 17.224C46.6005 17.224 46.1471 17.1227 45.7631 16.92C45.3791 16.7173 45.0645 16.4453 44.8191 16.104C44.5738 15.752 44.3871 15.3413 44.2591 14.872C44.1418 14.392 44.0831 13.88 44.0831 13.336ZM46.0671 13.32C46.0671 13.7573 46.1045 14.1147 46.1791 14.392C46.2538 14.6693 46.3498 14.888 46.4671 15.048C46.5951 15.208 46.7445 15.32 46.9151 15.384C47.0858 15.4373 47.2671 15.464 47.4591 15.464C47.8325 15.464 48.1791 15.288 48.4991 14.936C48.8298 14.584 49.1178 14.1253 49.3631 13.56C49.6085 12.9947 49.8005 12.36 49.9391 11.656C50.0885 10.9413 50.1631 10.2213 50.1631 9.496C50.1631 9.16533 50.1418 8.86667 50.0991 8.6C50.0671 8.33333 49.9978 8.10933 49.8911 7.928C49.7951 7.736 49.6618 7.592 49.4911 7.496C49.3205 7.38933 49.1018 7.336 48.8351 7.336C48.4831 7.336 48.1418 7.50133 47.8111 7.832C47.4805 8.16267 47.1818 8.60533 46.9151 9.16C46.6591 9.704 46.4511 10.3387 46.2911 11.064C46.1418 11.7893 46.0671 12.5413 46.0671 13.32ZM52.8179 9.016C52.8179 8.44 52.9139 7.93867 53.1059 7.512C53.3085 7.08533 53.5699 6.73333 53.8899 6.456C54.2099 6.168 54.5619 5.95467 54.9459 5.816C55.3405 5.67733 55.7299 5.608 56.1139 5.608C56.8179 5.608 57.3512 5.77333 57.7139 6.104C58.0872 6.424 58.2739 6.89867 58.2739 7.528C58.2739 8.136 58.1832 8.664 58.0019 9.112C57.8205 9.54933 57.5752 9.912 57.2659 10.2C56.9565 10.488 56.5992 10.7013 56.1939 10.84C55.7992 10.9787 55.3885 11.048 54.9619 11.048C54.3005 11.048 53.7779 10.8667 53.3939 10.504C53.0099 10.1307 52.8179 9.63467 52.8179 9.016ZM54.5779 8.92C54.5672 9.15467 54.6205 9.34667 54.7379 9.496C54.8552 9.63467 55.0259 9.704 55.2499 9.704C55.6019 9.704 55.9005 9.52267 56.1459 9.16C56.3912 8.78667 56.5139 8.312 56.5139 7.736C56.5139 7.21333 56.2845 6.952 55.8259 6.952C55.6445 6.952 55.4792 7.00533 55.3299 7.112C55.1805 7.21867 55.0472 7.36267 54.9299 7.544C54.8125 7.71467 54.7219 7.92267 54.6579 8.168C54.5939 8.40267 54.5672 8.65333 54.5779 8.92ZM58.6419 14.936C58.6419 14.36 58.7379 13.8587 58.9299 13.432C59.1325 13.0053 59.3939 12.6533 59.7139 12.376C60.0339 12.088 60.3859 11.8747 60.7699 11.736C61.1645 11.5973 61.5539 11.528 61.9379 11.528C62.6419 11.528 63.1752 11.6933 63.5379 12.024C63.9112 12.344 64.0979 12.8187 64.0979 13.448C64.0979 14.056 64.0072 14.584 63.8259 15.032C63.6445 15.4693 63.3992 15.832 63.0899 16.12C62.7805 16.408 62.4232 16.6213 62.0179 16.76C61.6232 16.8987 61.2125 16.968 60.7859 16.968C60.1245 16.968 59.6019 16.7867 59.2179 16.424C58.8339 16.0507 58.6419 15.5547 58.6419 14.936ZM60.4019 14.84C60.3912 15.0747 60.4445 15.2667 60.5619 15.416C60.6792 15.5547 60.8499 15.624 61.0739 15.624C61.4259 15.624 61.7245 15.4427 61.9699 15.08C62.2152 14.7067 62.3379 14.232 62.3379 13.656C62.3379 13.1333 62.1085 12.872 61.6499 12.872C61.4685 12.872 61.3032 12.9253 61.1539 13.032C61.0045 13.1387 60.8712 13.2827 60.7539 13.464C60.6365 13.6347 60.5459 13.8427 60.4819 14.088C60.4179 14.3227 60.3912 14.5733 60.4019 14.84ZM62.4179 5.576L63.5859 6.632L54.3699 17.224L53.2019 16.12L62.4179 5.576ZM69.553 12.808C69.553 11.816 69.6863 10.8827 69.953 10.008C70.2303 9.12267 70.6197 8.35467 71.121 7.704C71.6223 7.04267 72.225 6.52533 72.929 6.152C73.6437 5.768 74.4383 5.576 75.313 5.576C75.889 5.576 76.4063 5.66133 76.865 5.832C77.3343 6.00267 77.729 6.26933 78.049 6.632C78.3797 6.984 78.6357 7.432 78.817 7.976C78.9983 8.52 79.089 9.16533 79.089 9.912C79.089 10.9147 78.9503 11.8587 78.673 12.744C78.4063 13.6293 78.0223 14.408 77.521 15.08C77.0303 15.7413 76.4383 16.264 75.745 16.648C75.0623 17.032 74.305 17.224 73.473 17.224C72.2143 17.224 71.249 16.856 70.577 16.12C69.905 15.3733 69.5637 14.2693 69.553 12.808ZM71.745 12.744C71.745 13.512 71.889 14.1253 72.177 14.584C72.4757 15.0427 72.961 15.272 73.633 15.272C74.1237 15.272 74.5663 15.128 74.961 14.84C75.3663 14.5413 75.713 14.1467 76.001 13.656C76.289 13.1547 76.5077 12.584 76.657 11.944C76.817 11.304 76.897 10.6373 76.897 9.944C76.897 9.10133 76.7317 8.488 76.401 8.104C76.0703 7.72 75.617 7.528 75.041 7.528C74.561 7.528 74.1183 7.66667 73.713 7.944C73.3183 8.22133 72.9717 8.6 72.673 9.08C72.385 9.54933 72.1557 10.104 71.985 10.744C71.825 11.3733 71.745 12.04 71.745 12.744ZM82.8579 10.648L81.6739 17.544C81.6099 17.9387 81.5192 18.3013 81.4019 18.632C81.2845 18.9733 81.1192 19.2667 80.9059 19.512C80.7032 19.768 80.4419 19.9653 80.1219 20.104C79.8019 20.2533 79.4072 20.328 78.9379 20.328C78.5539 20.328 78.1805 20.296 77.8179 20.232C77.4445 20.1787 77.1245 20.0613 76.8579 19.88L77.4019 18.424C77.5832 18.4987 77.7645 18.5467 77.9459 18.568C78.1272 18.5893 78.3565 18.6 78.6339 18.6C78.9752 18.6 79.2365 18.4613 79.4179 18.184C79.6099 17.9173 79.7539 17.48 79.8499 16.872L80.8579 10.648H79.7379L80.0899 9H81.1139L81.3219 7.928C81.3965 7.53333 81.4925 7.192 81.6099 6.904C81.7272 6.60533 81.8819 6.36 82.0739 6.168C82.2765 5.96533 82.5165 5.816 82.7939 5.72C83.0819 5.624 83.4339 5.576 83.8499 5.576C84.0205 5.576 84.2125 5.58667 84.4259 5.608C84.6499 5.61867 84.8685 5.64533 85.0819 5.688C85.2952 5.72 85.5032 5.76267 85.7059 5.816C85.9085 5.86933 86.0899 5.93333 86.2499 6.008L85.7859 7.464C85.5405 7.368 85.2899 7.304 85.0339 7.272C84.7779 7.24 84.5272 7.224 84.2819 7.224C83.9405 7.224 83.6899 7.32533 83.5299 7.528C83.3805 7.73067 83.2739 8.04533 83.2099 8.472L83.1139 9H84.7139L84.3939 10.648H82.8579ZM87.561 10.648L86.377 17.544C86.313 17.9387 86.2223 18.3013 86.105 18.632C85.9877 18.9733 85.8223 19.2667 85.609 19.512C85.4063 19.768 85.145 19.9653 84.825 20.104C84.505 20.2533 84.1103 20.328 83.641 20.328C83.257 20.328 82.8837 20.296 82.521 20.232C82.1477 20.1787 81.8277 20.0613 81.561 19.88L82.105 18.424C82.2863 18.4987 82.4677 18.5467 82.649 18.568C82.8303 18.5893 83.0597 18.6 83.337 18.6C83.6783 18.6 83.9397 18.4613 84.121 18.184C84.313 17.9173 84.457 17.48 84.553 16.872L85.561 10.648H84.441L84.793 9H85.817L86.025 7.928C86.0997 7.53333 86.1957 7.192 86.313 6.904C86.4303 6.60533 86.585 6.36 86.777 6.168C86.9797 5.96533 87.2197 5.816 87.497 5.72C87.785 5.624 88.137 5.576 88.553 5.576C88.7237 5.576 88.9157 5.58667 89.129 5.608C89.353 5.61867 89.5717 5.64533 89.785 5.688C89.9983 5.72 90.2063 5.76267 90.409 5.816C90.6117 5.86933 90.793 5.93333 90.953 6.008L90.489 7.464C90.2437 7.368 89.993 7.304 89.737 7.272C89.481 7.24 89.2303 7.224 88.985 7.224C88.6437 7.224 88.393 7.32533 88.233 7.528C88.0837 7.73067 87.977 8.04533 87.913 8.472L87.817 9H89.417L89.097 10.648H87.561Z" fill="white"/>
<path d="M22.5312 12.0625L15.9375 5.46875C15.6875 5.21875 15.2188 5 14.875 5H8.5C7.65625 5 7 5.6875 7 6.5V12.9062C7 13.25 7.1875 13.7188 7.4375 13.9688L14.0312 20.5625C14.625 21.1562 15.5938 21.1562 16.1562 20.5625L22.5312 14.1875C23.125 13.625 23.125 12.6562 22.5312 12.0625ZM15.0938 19.5L8.5 12.9062V6.5H14.875L21.5 13.125L15.0938 19.5ZM13 9.5C13 8.6875 12.3125 8 11.5 8C10.6562 8 10 8.6875 10 9.5C10 10.3438 10.6562 11 11.5 11C12.3125 11 13 10.3438 13 9.5Z" fill="white"/>
</svg>
