<svg width="24" height="24" viewBox="0 0 24 24" fill="#828282" xmlns="http://www.w3.org/2000/svg">
<path d="M21.75 6.75H20.4844C20.8125 6.1875 21 5.57812 21 4.875C21 2.625 19.125 0.75 16.875 0.75C14.9062 0.75 13.6406 1.78125 12.0469 3.98438C10.4062 1.78125 9.14062 0.75 7.21875 0.75C4.92188 0.75 3.09375 2.625 3.09375 4.875C3.09375 5.57812 3.23438 6.1875 3.5625 6.75H2.25C0.984375 6.75 0 7.78125 0 9V15C0 15.4219 0.328125 15.75 0.75 15.75H1.5V20.8125C1.5 22.1719 2.57812 23.25 3.9375 23.25H20.0156C21.375 23.25 22.5 22.1719 22.5 20.8125V15.75H23.25C23.625 15.75 24 15.4219 24 15V9C24 7.78125 22.9688 6.75 21.75 6.75ZM10.875 21H3.9375C3.84375 21 3.75 20.9062 3.75 20.8125V15.75H9V13.5H2.25V9H10.875V21ZM7.17188 6.75C6.14062 6.75 5.29688 5.95312 5.29688 4.875C5.29688 3.84375 6.14062 3 7.17188 3C8.20312 3 8.95312 3.375 11.1562 6.60938L11.25 6.75H7.17188ZM12.8906 6.60938C15.0938 3.375 15.8438 3 16.875 3C17.9062 3 18.75 3.84375 18.75 4.875C18.75 5.95312 17.9062 6.75 16.875 6.75H12.7969L12.8906 6.60938ZM21.75 13.5H15V15.75H20.25V20.8125C20.25 20.9062 20.1562 21 20.0156 21H13.125V9H21.75V13.5Z" fill="#828282"/>
</svg>
