<svg width="98" height="31" viewBox="0 0 98 31" fill="none" xmlns="http://www.w3.org/2000/svg">
<rect width="98" height="31" rx="4" fill="black" fill-opacity="0.56"/>
<path d="M16.056 21H11.4H9.32L11.688 9.8H13.768L11.8 19.048H16.456L16.056 21ZM16.4436 16.808C16.4436 15.816 16.577 14.8827 16.8436 14.008C17.121 13.1227 17.5103 12.3547 18.0116 11.704C18.513 11.0427 19.1156 10.5253 19.8196 10.152C20.5343 9.768 21.329 9.576 22.2036 9.576C22.7796 9.576 23.297 9.66133 23.7556 9.832C24.225 10.0027 24.6196 10.2693 24.9396 10.632C25.2703 10.984 25.5263 11.432 25.7076 11.976C25.889 12.52 25.9796 13.1653 25.9796 13.912C25.9796 14.9147 25.841 15.8587 25.5636 16.744C25.297 17.6293 24.913 18.408 24.4116 19.08C23.921 19.7413 23.329 20.264 22.6356 20.648C21.953 21.032 21.1956 21.224 20.3636 21.224C19.105 21.224 18.1396 20.856 17.4676 20.12C16.7956 19.3733 16.4543 18.2693 16.4436 16.808ZM18.6356 16.744C18.6356 17.512 18.7796 18.1253 19.0676 18.584C19.3663 19.0427 19.8516 19.272 20.5236 19.272C21.0143 19.272 21.457 19.128 21.8516 18.84C22.257 18.5413 22.6036 18.1467 22.8916 17.656C23.1796 17.1547 23.3983 16.584 23.5476 15.944C23.7076 15.304 23.7876 14.6373 23.7876 13.944C23.7876 13.1013 23.6223 12.488 23.2916 12.104C22.961 11.72 22.5076 11.528 21.9316 11.528C21.4516 11.528 21.009 11.6667 20.6036 11.944C20.209 12.2213 19.8623 12.6 19.5636 13.08C19.2756 13.5493 19.0463 14.104 18.8756 14.744C18.7156 15.3733 18.6356 16.04 18.6356 16.744ZM29.3746 16.04L29.1506 18.024H29.2306L29.8546 16.008L33.0226 9.8H34.4306L34.8946 16.04L34.6866 18.024H34.7666L35.4066 16.008L38.0306 9.8H40.2706L34.9426 21.08H33.4866L32.8946 14.856L33.0226 13.144H32.9266L32.3186 14.872L29.1346 21.08H27.6786L27.1346 9.8H29.3266L29.3746 16.04ZM50.2664 12.056C50.0637 11.928 49.765 11.8 49.3704 11.672C48.9757 11.5333 48.5384 11.464 48.0584 11.464C47.813 11.464 47.573 11.4907 47.3384 11.544C47.1037 11.5867 46.8957 11.6613 46.7144 11.768C46.533 11.8747 46.389 12.0133 46.2824 12.184C46.1757 12.3547 46.1224 12.5573 46.1224 12.792C46.1224 13.1013 46.2184 13.3627 46.4104 13.576C46.6024 13.7893 46.8424 13.992 47.1304 14.184C47.429 14.3653 47.7437 14.552 48.0744 14.744C48.4157 14.936 48.7304 15.16 49.0184 15.416C49.317 15.672 49.5624 15.9813 49.7544 16.344C49.9464 16.696 50.0424 17.1333 50.0424 17.656C50.0424 18.2853 49.9304 18.8293 49.7064 19.288C49.493 19.736 49.1837 20.104 48.7784 20.392C48.3837 20.68 47.9037 20.888 47.3384 21.016C46.7837 21.1547 46.165 21.224 45.4824 21.224C45.109 21.224 44.7517 21.2027 44.4104 21.16C44.0797 21.1173 43.7704 21.064 43.4824 21C43.1944 20.936 42.9384 20.8667 42.7144 20.792C42.501 20.7067 42.3304 20.6267 42.2024 20.552L43.2744 18.696C43.381 18.76 43.5197 18.8293 43.6904 18.904C43.861 18.9787 44.053 19.048 44.2664 19.112C44.4904 19.176 44.7304 19.2293 44.9864 19.272C45.2424 19.3147 45.4984 19.336 45.7544 19.336C46.053 19.336 46.3357 19.3147 46.6024 19.272C46.869 19.2187 47.0984 19.1387 47.2904 19.032C47.493 18.9147 47.6477 18.7707 47.7544 18.6C47.8717 18.4293 47.9304 18.216 47.9304 17.96C47.9304 17.672 47.8344 17.4267 47.6424 17.224C47.4504 17.0213 47.205 16.8293 46.9064 16.648C46.6184 16.4667 46.3037 16.28 45.9624 16.088C45.6317 15.8853 45.317 15.6507 45.0184 15.384C44.7304 15.1173 44.4904 14.7973 44.2984 14.424C44.1064 14.04 44.0104 13.576 44.0104 13.032C44.0104 12.4133 44.117 11.8853 44.3304 11.448C44.5544 11.0107 44.853 10.6533 45.2264 10.376C45.5997 10.0987 46.037 9.896 46.5384 9.768C47.0397 9.64 47.5784 9.576 48.1544 9.576C48.4637 9.576 48.773 9.592 49.0824 9.624C49.3917 9.656 49.685 9.704 49.9624 9.768C50.2397 9.82133 50.4957 9.89067 50.7304 9.976C50.965 10.0507 51.1624 10.136 51.3224 10.232L50.2664 12.056ZM60.2146 11.752H57.1106L55.1426 21H53.0786L55.0306 11.752H51.9266L52.3426 9.8H60.6146L60.2146 11.752ZM59.4593 16.808C59.4593 15.816 59.5926 14.8827 59.8593 14.008C60.1366 13.1227 60.5259 12.3547 61.0273 11.704C61.5286 11.0427 62.1313 10.5253 62.8353 10.152C63.5499 9.768 64.3446 9.576 65.2193 9.576C65.7953 9.576 66.3126 9.66133 66.7713 9.832C67.2406 10.0027 67.6353 10.2693 67.9553 10.632C68.2859 10.984 68.5419 11.432 68.7233 11.976C68.9046 12.52 68.9953 13.1653 68.9953 13.912C68.9953 14.9147 68.8566 15.8587 68.5793 16.744C68.3126 17.6293 67.9286 18.408 67.4273 19.08C66.9366 19.7413 66.3446 20.264 65.6513 20.648C64.9686 21.032 64.2113 21.224 63.3793 21.224C62.1206 21.224 61.1553 20.856 60.4833 20.12C59.8113 19.3733 59.4699 18.2693 59.4593 16.808ZM61.6513 16.744C61.6513 17.512 61.7953 18.1253 62.0833 18.584C62.3819 19.0427 62.8673 19.272 63.5393 19.272C64.0299 19.272 64.4726 19.128 64.8673 18.84C65.2726 18.5413 65.6193 18.1467 65.9073 17.656C66.1953 17.1547 66.4139 16.584 66.5633 15.944C66.7233 15.304 66.8033 14.6373 66.8033 13.944C66.8033 13.1013 66.6379 12.488 66.3073 12.104C65.9766 11.72 65.5233 11.528 64.9473 11.528C64.4673 11.528 64.0246 11.6667 63.6193 11.944C63.2246 12.2213 62.8779 12.6 62.5793 13.08C62.2913 13.5493 62.0619 14.104 61.8913 14.744C61.7313 15.3733 61.6513 16.04 61.6513 16.744ZM76.5561 20.536C75.8415 20.9947 74.9668 21.224 73.9321 21.224C73.2281 21.224 72.6148 21.1067 72.0921 20.872C71.5695 20.6373 71.1321 20.312 70.7801 19.896C70.4388 19.48 70.1828 18.9947 70.0121 18.44C69.8415 17.8853 69.7561 17.288 69.7561 16.648C69.7561 15.3893 69.9321 14.3173 70.2841 13.432C70.6361 12.536 71.1001 11.8053 71.6761 11.24C72.2521 10.664 72.9081 10.2427 73.6441 9.976C74.3908 9.70933 75.1535 9.576 75.9321 9.576C76.5401 9.576 77.0575 9.624 77.4841 9.72C77.9215 9.80533 78.2628 9.90667 78.5081 10.024L77.6921 11.88C77.4788 11.7627 77.2228 11.6773 76.9241 11.624C76.6255 11.56 76.2468 11.528 75.7881 11.528C75.2441 11.528 74.7375 11.64 74.2681 11.864C73.7988 12.088 73.3935 12.408 73.0521 12.824C72.7108 13.24 72.4388 13.7467 72.2361 14.344C72.0441 14.9413 71.9481 15.6187 71.9481 16.376C71.9481 17.2827 72.1721 17.992 72.6201 18.504C73.0788 19.016 73.6868 19.272 74.4441 19.272C74.9241 19.272 75.3188 19.224 75.6281 19.128C75.9481 19.0213 76.2468 18.8933 76.5241 18.744L76.5561 20.536ZM81.5819 16.216H80.8299L79.8219 21H77.7419L80.1099 9.8H82.1899L81.1339 14.76L81.6299 14.584L85.4219 9.8H87.9179L83.8859 14.552L82.9259 15.112L83.6299 15.736L86.0619 21H83.7419L81.5819 16.216Z" fill="white"/>
</svg>
