<svg width="40" height="30" viewBox="0 0 40 30" fill="#fff" xmlns="http://www.w3.org/2000/svg">
<path d="M36.25 0H3.75C1.64062 0 0 1.71875 0 3.75V26.25C0 28.3594 1.64062 30 3.75 30H36.25C38.2812 30 40 28.3594 40 26.25V3.75C40 1.71875 38.2812 0 36.25 0ZM36.25 3.75V6.95312C34.4531 8.4375 31.6406 10.625 25.7031 15.3125C24.375 16.3281 21.7969 18.8281 20 18.75C18.125 18.8281 15.5469 16.3281 14.2188 15.3125C8.28125 10.625 5.46875 8.4375 3.75 6.95312V3.75H36.25ZM3.75 26.25V11.7969C5.46875 13.2031 8.04688 15.2344 11.875 18.2812C13.5938 19.6094 16.6406 22.5781 20 22.5C23.2812 22.5781 26.25 19.6094 28.0469 18.2812C31.875 15.2344 34.4531 13.2031 36.25 11.7969V26.25H3.75Z" fill="white"/>
</svg>
