<svg width="17" height="13" viewBox="0 0 17 13" fill="#EAEAEA" xmlns="http://www.w3.org/2000/svg">
<path d="M15.8828 4.64844L13.75 0.898438C13.6094 0.664062 13.375 0.5 13.0938 0.5H3.88281C3.625 0.5 3.36719 0.664062 3.22656 0.898438L1.09375 4.64844C0.8125 5.14062 1.16406 5.75 1.75 5.75H2.5V11.6797C2.5 12.1484 2.82812 12.5 3.25 12.5H9.25C9.64844 12.5 10 12.1484 10 11.6797V5.75H13.375V12.125C13.375 12.3359 13.5391 12.5 13.75 12.5H14.125C14.3125 12.5 14.5 12.3359 14.5 12.125V5.75H15.25C15.8125 5.75 16.1641 5.14062 15.8828 4.64844ZM8.875 11.375H3.625V9.14844H8.875V11.375ZM8.875 8.02344H3.625V5.75H8.875V8.02344ZM2.38281 4.625L4.09375 1.625H12.8828L14.5938 4.625H2.38281Z" fill="#828282" fill-opacity="0.5"/>
</svg>
