<svg width="25" height="25" viewBox="0 0 25 25" fill="#828282" xmlns="http://www.w3.org/2000/svg">
<path d="M23.2969 10.5938L13.4062 0.703125C13.0312 0.328125 12.3281 0 11.8125 0H2.25C0.984375 0 0 1.03125 0 2.25V11.8594C0 12.375 0.28125 13.0781 0.65625 13.4531L10.5469 23.3438C11.4375 24.2344 12.8906 24.2344 13.7344 23.3438L23.2969 13.7812C24.1875 12.9375 24.1875 11.4844 23.2969 10.5938ZM12.1406 21.75L2.25 11.8594V2.25H11.8125L21.75 12.1875L12.1406 21.75ZM9 6.75C9 5.53125 7.96875 4.5 6.75 4.5C5.48438 4.5 4.5 5.53125 4.5 6.75C4.5 8.01562 5.48438 9 6.75 9C7.96875 9 9 8.01562 9 6.75Z" fill="#828282"/>
</svg>
